<svg width="20" height="19" viewBox="0 0 20 19" fill="none" xmlns="http://www.w3.org/2000/svg">
<path d="M10 8.38801C9.094 6.62701 6.628 3.34401 4.335 1.72601C2.138 0.176009 1.301 0.443009 0.752 0.693009C0.116 0.978009 0 1.95501 0 2.52801C0 3.10301 0.315 7.23701 0.52 7.92801C1.2 10.208 3.614 10.978 5.84 10.731C2.58 11.214 -0.317 12.401 3.48 16.629C7.658 20.954 9.206 15.702 10 13.039C10.794 15.702 11.708 20.765 16.444 16.629C20 13.039 17.421 11.214 14.161 10.731C16.386 10.978 18.801 10.208 19.48 7.92801C19.685 7.23801 20 3.10301 20 2.52901C20 1.95401 19.884 0.979009 19.248 0.691009C18.699 0.443009 17.862 0.174009 15.665 1.72401C13.372 3.34501 10.905 6.62801 10 8.38801Z" fill="#231A16" fill-opacity="0.64"/>
</svg>
