<svg width="20" height="20" viewBox="0 0 20 20" fill="none" xmlns="http://www.w3.org/2000/svg">
<path d="M3.33457 11.0938C3.13063 10.7351 3.07685 10.3103 3.18496 9.91209C3.29307 9.5139 3.55428 9.17463 3.91161 8.96832C4.26893 8.76201 4.69335 8.70542 5.09225 8.81088C5.49115 8.91634 5.83214 9.1753 6.04082 9.53125L7.50019 11.875V3.4375C7.50019 3.0231 7.66481 2.62567 7.95784 2.33265C8.25086 2.03962 8.64829 1.875 9.06269 1.875C9.47709 1.875 9.87452 2.03962 10.1675 2.33265C10.4606 2.62567 10.6252 3.0231 10.6252 3.4375V7.8125C10.6252 7.3981 10.7898 7.00067 11.0828 6.70765C11.3759 6.41462 11.7733 6.25 12.1877 6.25C12.6021 6.25 12.9995 6.41462 13.2925 6.70765C13.5856 7.00067 13.7502 7.3981 13.7502 7.8125V9.0625C13.7502 8.6481 13.9148 8.25067 14.2078 7.95765C14.5009 7.66462 14.8983 7.5 15.3127 7.5C15.7271 7.5 16.1245 7.66462 16.4175 7.95765C16.7106 8.25067 16.8752 8.6481 16.8752 9.0625V11.875C16.8752 12.6958 16.7135 13.5085 16.3994 14.2668C16.0853 15.0251 15.625 15.7141 15.0446 16.2944C14.4642 16.8748 13.7752 17.3352 13.017 17.6492C12.2587 17.9633 11.446 18.125 10.6252 18.125C7.17363 18.125 6.26504 16.25 3.33457 11.0938Z" stroke="#58240E" stroke-width="2" stroke-linecap="round" stroke-linejoin="round"/>
</svg>
