<svg width="21" height="20" viewBox="0 0 21 20" fill="none" xmlns="http://www.w3.org/2000/svg">
<path d="M17.208 3.75H3.45801C3.11283 3.75 2.83301 4.02982 2.83301 4.375V15.625C2.83301 15.9702 3.11283 16.25 3.45801 16.25H17.208C17.5532 16.25 17.833 15.9702 17.833 15.625V4.375C17.833 4.02982 17.5532 3.75 17.208 3.75Z" stroke="#58240E" stroke-width="2" stroke-linecap="round" stroke-linejoin="round"/>
<path d="M12.833 3.75V16.25" stroke="#58240E" stroke-width="2" stroke-linecap="round" stroke-linejoin="round"/>
<path d="M12.833 10H17.833" stroke="#58240E" stroke-width="2" stroke-linecap="round" stroke-linejoin="round"/>
<path d="M15.333 7.8125C15.8508 7.8125 16.2705 7.39277 16.2705 6.875C16.2705 6.35723 15.8508 5.9375 15.333 5.9375C14.8152 5.9375 14.3955 6.35723 14.3955 6.875C14.3955 7.39277 14.8152 7.8125 15.333 7.8125Z" fill="#58240E"/>
<path d="M15.333 14.0625C15.8508 14.0625 16.2705 13.6428 16.2705 13.125C16.2705 12.6072 15.8508 12.1875 15.333 12.1875C14.8152 12.1875 14.3955 12.6072 14.3955 13.125C14.3955 13.6428 14.8152 14.0625 15.333 14.0625Z" fill="#58240E"/>
<path d="M7.83301 11.25C8.86854 11.25 9.70801 10.4105 9.70801 9.375C9.70801 8.33947 8.86854 7.5 7.83301 7.5C6.79747 7.5 5.95801 8.33947 5.95801 9.375C5.95801 10.4105 6.79747 11.25 7.83301 11.25Z" stroke="#58240E" stroke-width="2" stroke-linecap="round" stroke-linejoin="round"/>
<path d="M5.33301 13.125C5.61035 12.0469 6.66816 11.25 7.83301 11.25C8.99785 11.25 10.0564 12.0461 10.333 13.125" stroke="#58240E" stroke-width="2" stroke-linecap="round" stroke-linejoin="round"/>
</svg>
