<svg width="134" height="140" viewBox="0 0 134 140" fill="none" xmlns="http://www.w3.org/2000/svg">
<path fill-rule="evenodd" clip-rule="evenodd" d="M45.9313 0C53.5477 0 57.3397 9.2347 51.9238 14.5934L31.0729 35.224C23.0105 43.2012 22.0563 55.9044 28.8367 64.9977L29.4614 65.8352C37.4894 76.6016 53.0444 78.0963 62.9734 69.0557L65.1764 67.0496C68.5277 63.9978 73.6795 64.1036 76.9029 67.2904L119.045 108.955C119.054 108.963 119.048 108.978 119.036 108.978C119.023 108.978 119.017 108.993 119.026 109.002L119.803 109.705L122.158 112.032C123.231 113.094 124.129 114.298 124.834 115.602C126.134 118.007 125.245 120.875 123.413 122.904L116.142 130.954C112.985 134.448 107.596 134.72 104.104 131.562L102.628 130.227C99.5459 127.439 94.9039 127.282 91.6398 129.854L81.0858 138.171C77.5993 140.919 72.5892 140.53 69.5685 137.276L62.5488 129.715C59.1456 126.05 53.335 126.09 49.9821 129.801L43.9795 136.446C40.8502 139.91 33.8681 141.474 27.6015 135.65L0.129935 108.978C0.0472066 108.903 0 108.797 0 108.685V29.7861C0 27.5225 0.899231 25.3518 2.49961 23.752L23.7658 2.49471C25.3639 0.897283 27.5304 0 29.7892 0H45.9313ZM39.7942 108.838C39.783 108.85 39.7839 108.87 39.7964 108.881L39.8952 108.97C39.9007 108.975 39.9079 108.978 39.9154 108.978C39.9431 108.978 39.9563 108.944 39.9357 108.925L39.837 108.836C39.8246 108.825 39.8055 108.826 39.7942 108.838Z" fill="url(#paint0_linear_116_567)"/>
<path d="M104.211 0C106.47 0 108.637 0.897301 110.235 2.49476L131.5 23.752C133.101 25.3518 134 27.5225 134 29.786V105.99C134 107.64 132.663 108.978 131.014 108.978C130.086 108.978 129.22 108.538 128.609 107.838C128.249 107.426 127.874 107.026 127.482 106.64L82.7343 62.3987C79.3715 59.074 79.3552 53.6458 82.6979 50.3009L89.9646 43.0295C91.444 41.5491 91.444 39.1489 89.9646 37.6685C88.4852 36.1881 86.0867 36.1881 84.6073 37.6684L68.6401 53.646L57.8745 63.4485C51.2552 69.4756 40.8852 68.4791 35.5332 61.3016L34.9089 60.464C30.3887 54.4019 31.0245 45.9332 36.3993 40.6151L74.9576 2.46404C76.5531 0.885388 78.7064 0 80.9501 0H104.211Z" fill="url(#paint1_linear_116_567)"/>
<defs>
<linearGradient id="paint0_linear_116_567" x1="67" y1="0" x2="67" y2="140" gradientUnits="userSpaceOnUse">
<stop stop-color="#09090B"/>
<stop offset="1" stop-color="#58240E"/>
</linearGradient>
<linearGradient id="paint1_linear_116_567" x1="67" y1="0" x2="67" y2="140" gradientUnits="userSpaceOnUse">
<stop stop-color="#09090B"/>
<stop offset="1" stop-color="#58240E"/>
</linearGradient>
</defs>
</svg>
