<svg width="22" height="22" viewBox="0 0 22 22" fill="none" xmlns="http://www.w3.org/2000/svg">
<path d="M20.625 11C20.6272 11.282 20.5415 11.5576 20.3798 11.7886C20.2181 12.0197 19.9884 12.1946 19.7227 12.289L14.2708 14.2716L12.2891 19.7226C12.1914 19.9858 12.0156 20.2127 11.7851 20.373C11.5547 20.5332 11.2807 20.6192 11 20.6192C10.7193 20.6192 10.4454 20.5332 10.215 20.373C9.98452 20.2127 9.80865 19.9858 9.71097 19.7226L7.72925 14.2708L2.27738 12.289C2.01424 12.1914 1.78729 12.0155 1.62702 11.7851C1.46676 11.5546 1.38086 11.2807 1.38086 11C1.38086 10.7193 1.46676 10.4453 1.62702 10.2149C1.78729 9.98446 2.01424 9.80859 2.27738 9.71091L7.72925 7.72919L9.71097 2.27732C9.80865 2.01418 9.98452 1.78723 10.215 1.62696C10.4454 1.4667 10.7193 1.3808 11 1.3808C11.2807 1.3808 11.5547 1.4667 11.7851 1.62696C12.0156 1.78723 12.1914 2.01418 12.2891 2.27732L14.2717 7.72919L19.7227 9.71091C19.9884 9.80538 20.2181 9.98028 20.3798 10.2113C20.5415 10.4423 20.6272 10.718 20.625 11Z" fill="#753110"/>
</svg>
