
<svg width="57" height="56" viewBox="0 0 57 56" fill="none" xmlns="http://www.w3.org/2000/svg">
<circle cx="28.3334" cy="28" r="28" fill="#fff1d3" style="mix-blend-mode:overlay"/>
<path d="M24.0001 27C29.523 27 34.0001 24.9853 34.0001 22.5C34.0001 20.0147 29.523 18 24.0001 18C18.4773 18 14.0001 20.0147 14.0001 22.5C14.0001 24.9853 18.4773 27 24.0001 27Z" stroke="#58240E" stroke-width="2" stroke-linecap="round" stroke-linejoin="round"/>
<path d="M14.0001 22.5V27.5C14.0001 29.985 18.4776 32 24.0001 32C29.5226 32 34.0001 29.985 34.0001 27.5V22.5" stroke="#58240E" stroke-width="2" stroke-linecap="round" stroke-linejoin="round"/>
<path d="M20.0001 26.625V31.625" stroke="#58240E" stroke-width="2" stroke-linecap="round" stroke-linejoin="round"/>
<path d="M34.0001 24.09C38.5651 24.5075 42.0001 26.3225 42.0001 28.5C42.0001 30.985 37.5226 33 32.0001 33C29.5501 33 27.3051 32.6037 25.5663 31.945" stroke="#58240E" stroke-width="2" stroke-linecap="round" stroke-linejoin="round"/>
<path d="M22.0001 31.91V33.5C22.0001 35.985 26.4776 38 32.0001 38C37.5226 38 42.0001 35.985 42.0001 33.5V28.5" stroke="#58240E" stroke-width="2" stroke-linecap="round" stroke-linejoin="round"/>
<path d="M36.0001 32.625V37.625" stroke="#343330" stroke-width="2" stroke-linecap="round" stroke-linejoin="round"/>
<path d="M28.0001 26.625V37.625" stroke="#343330" stroke-width="2" stroke-linecap="round" stroke-linejoin="round"/>
</svg>
