
<svg width="986" height="42" viewBox="0 0 986 42" fill="none" xmlns="http://www.w3.org/2000/svg">
<path fill-rule="evenodd" clip-rule="evenodd" d="M13.7902 0C16.0769 0 17.2154 2.77041 15.5894 4.37802L9.32918 10.5672C6.90857 12.9603 6.62207 16.7713 8.6578 19.4993L8.84536 19.7506C11.2557 22.9805 15.9258 23.4289 18.9069 20.7167L19.5683 20.1149C20.5745 19.1993 22.1212 19.2311 23.089 20.1871L35.7416 32.6864C35.7442 32.689 35.7424 32.6934 35.7387 32.6934C35.735 32.6934 35.7332 32.698 35.736 32.7005L35.9691 32.9114L36.6762 33.6097C36.9984 33.9281 37.2681 34.2895 37.4796 34.6807C37.8699 35.4022 37.6031 36.2625 37.053 36.8711L34.8698 39.2861C33.9222 40.3344 32.304 40.4161 31.2556 39.4685L30.8126 39.0682C29.8872 38.2318 28.4935 38.1845 27.5135 38.9562L24.3449 41.4514C23.2981 42.2757 21.7939 42.1589 20.887 41.1829L18.7794 38.9146C17.7576 37.815 16.0131 37.8269 15.0064 38.9404L13.2042 40.9339C12.2647 41.9731 10.1684 42.4421 8.28696 40.6949L0.039011 32.6934C0.0141731 32.671 0 32.6391 0 32.6056V8.93582C0 8.25675 0.269981 7.60553 0.750473 7.12561L7.13535 0.748414C7.61515 0.269185 8.2656 0 8.94378 0H13.7902ZM11.9476 32.6514C11.9443 32.6551 11.9446 32.6609 11.9483 32.6643L11.9779 32.6911C11.9796 32.6926 11.9818 32.6934 11.984 32.6934C11.9923 32.6934 11.9963 32.6832 11.9901 32.6776L11.9605 32.6508C11.9568 32.6474 11.951 32.6477 11.9476 32.6514Z" fill="white"/>
<path d="M31.2879 0C31.9661 0 32.6166 0.26919 33.0964 0.748429L39.4811 7.12561C39.9616 7.60553 40.2316 8.25674 40.2316 8.9358V31.7971C40.2316 32.2921 39.8302 32.6934 39.3352 32.6934C39.0564 32.6934 38.7963 32.5613 38.6129 32.3514C38.505 32.2279 38.3923 32.1079 38.2748 31.9919L24.8398 18.7196C23.8302 17.7222 23.8253 16.0937 24.8289 15.0903L27.0106 12.9088C27.4548 12.4647 27.4548 11.7447 27.0106 11.3005C26.5664 10.8564 25.8463 10.8564 25.4021 11.3005L20.6082 16.0938L17.376 19.0346C15.3886 20.8427 12.2752 20.5437 10.6683 18.3905L10.4809 18.1392C9.12377 16.3206 9.31465 13.78 10.9284 12.1845L22.5049 0.739213C22.984 0.265616 23.6305 0 24.3041 0H31.2879Z" fill="white"/>
<path d="M60.3245 31.4989V8.08252H63.2642V18.1277H74.7556V8.08252H77.6953V31.4989H74.7556V20.8826H63.2642V31.4989H60.3245Z" fill="#FAFAFA"/>
<path d="M81.6951 31.4989V14.9361H84.5011V31.4989H81.6951Z" fill="#FAFAFA"/>
<path d="M88.2621 31.4989V14.9361H91.1016V19.3708L90.3666 19.5387C90.5225 18.5533 90.89 17.7022 91.469 16.9855C92.0703 16.2463 92.7607 15.6752 93.5401 15.2721C94.3419 14.8689 95.1213 14.6673 95.8785 14.6673C96.3907 14.6673 96.8807 14.7233 97.3484 14.8353C97.816 14.9473 98.2949 15.1377 98.7848 15.4064L97.3818 17.9597C97.1145 17.8254 96.7916 17.7134 96.413 17.6238C96.0567 17.5342 95.7115 17.4894 95.3774 17.4894C94.843 17.4894 94.3085 17.5902 93.774 17.7918C93.2618 17.9933 92.7941 18.3069 92.371 18.7324C91.9478 19.158 91.6249 19.7291 91.4022 20.4458C91.3131 20.7594 91.2352 21.1738 91.1684 21.6889C91.1238 22.1816 91.1016 22.8647 91.1016 23.7382V31.4989H88.2621Z" fill="#FAFAFA"/>
<path d="M106.866 31.7677C105.574 31.7677 104.438 31.5549 103.458 31.1294C102.501 30.6814 101.699 30.0655 101.053 29.2816C100.43 28.4977 99.9509 27.6018 99.6168 26.5939C99.305 25.5636 99.1491 24.4774 99.1491 23.3351C99.1491 22.1928 99.305 21.1066 99.6168 20.0763C99.9286 19.0236 100.385 18.0941 100.986 17.2878C101.61 16.4815 102.389 15.8432 103.325 15.3728C104.26 14.9025 105.351 14.6673 106.599 14.6673C107.868 14.6673 108.959 14.8913 109.872 15.3392C110.808 15.7648 111.565 16.3583 112.144 17.1198C112.745 17.8813 113.191 18.7324 113.48 19.6731C113.77 20.6138 113.914 21.5881 113.914 22.596C113.914 22.6856 113.903 22.8983 113.881 23.2343C113.881 23.5479 113.859 23.8278 113.814 24.0742H101.955C102.022 25.6868 102.49 26.9411 103.358 27.837C104.227 28.7328 105.407 29.1808 106.899 29.1808C107.857 29.1808 108.692 29.024 109.405 28.7104C110.117 28.3969 110.785 27.8929 111.409 27.1986L113.38 28.9456C112.779 29.5951 112.144 30.1327 111.476 30.5582C110.808 30.9614 110.095 31.2637 109.338 31.4653C108.603 31.6669 107.779 31.7677 106.866 31.7677ZM111.108 22.6296C111.153 22.4504 111.175 22.2712 111.175 22.092C111.197 21.9129 111.208 21.7337 111.208 21.5545C111.208 21.017 111.108 20.4794 110.908 19.9419C110.73 19.4044 110.451 18.9228 110.073 18.4973C109.716 18.0493 109.249 17.7022 108.67 17.4558C108.113 17.187 107.445 17.0526 106.665 17.0526C105.708 17.0526 104.884 17.2766 104.193 17.7246C103.503 18.1725 102.968 18.766 102.59 19.5052C102.211 20.2443 101.989 21.0618 101.922 21.9577H112.044L111.108 22.6296Z" fill="#FAFAFA"/>
<path d="M116.788 31.4989V8.08252H124.472C126.365 8.08252 127.89 8.36249 129.048 8.92242C130.206 9.45995 131.053 10.2439 131.587 11.2741C132.144 12.282 132.422 13.4803 132.422 14.8689C132.422 17.019 131.81 18.6876 130.585 19.8747C129.382 21.0394 127.656 21.6889 125.407 21.8233C124.895 21.8457 124.372 21.8569 123.837 21.8569C123.303 21.8569 122.846 21.8569 122.467 21.8569H121.098V31.4989H116.788ZM129.449 31.4989L123.603 21.3529L128.013 20.8154L134.427 31.4989H129.449ZM121.098 17.9597H124.037C124.772 17.9597 125.44 17.8813 126.042 17.7246C126.665 17.5454 127.166 17.243 127.545 16.8175C127.924 16.3695 128.113 15.7424 128.113 14.9361C128.113 14.1074 127.924 13.4803 127.545 13.0547C127.166 12.6292 126.665 12.3492 126.042 12.2148C125.44 12.058 124.772 11.9797 124.037 11.9797H121.098V17.9597Z" fill="#FAFAFA"/>
<path d="M136.007 31.4989V14.9361H140.149V31.4989H136.007Z" fill="#FAFAFA"/>
<path d="M150.175 38.6885C147.725 38.6885 145.787 38.2517 144.362 37.3782C142.959 36.5047 142.257 35.2953 142.257 33.7498C142.257 33.6155 142.269 33.4475 142.291 33.2459C142.313 33.0667 142.347 32.8875 142.391 32.7084L147.001 29.8191L148.037 30.995L145.932 33.5819C145.91 33.6491 145.899 33.7051 145.899 33.7498C145.899 33.7946 145.899 33.8394 145.899 33.8842C145.899 34.5114 146.288 34.9929 147.068 35.3289C147.847 35.6648 148.883 35.8328 150.175 35.8328C151.266 35.8328 152.101 35.6872 152.68 35.396C153.259 35.1273 153.549 34.7241 153.549 34.1866C153.549 33.8954 153.471 33.6603 153.315 33.4811C153.159 33.3019 152.903 33.1563 152.546 33.0443C152.19 32.9323 151.722 32.8316 151.143 32.742C150.587 32.6524 149.907 32.5516 149.106 32.4396C148.081 32.3276 147.079 32.1148 146.099 31.8013C145.119 31.5101 144.306 31.0734 143.661 30.491C143.015 29.8863 142.692 29.0912 142.692 28.1057C142.692 27.2322 142.992 26.4371 143.594 25.7204C144.195 24.9813 144.986 24.3766 145.965 23.9062L147.97 25.5188C147.369 25.6084 146.912 25.81 146.6 26.1236C146.311 26.4371 146.166 26.8067 146.166 27.2322C146.166 27.5906 146.311 27.8817 146.6 28.1057C146.89 28.3073 147.302 28.4641 147.836 28.5761C148.371 28.6881 149.005 28.7888 149.74 28.8784C150.876 29.0352 151.923 29.2032 152.88 29.3824C153.86 29.5615 154.707 29.8191 155.419 30.1551C156.154 30.4686 156.711 30.9054 157.089 31.4653C157.49 32.0253 157.691 32.7532 157.691 33.6491C157.691 35.2841 157.034 36.5271 155.72 37.3782C154.428 38.2517 152.58 38.6885 150.175 38.6885ZM149.841 26.8627C148.46 26.8627 147.246 26.6051 146.199 26.09C145.175 25.5524 144.373 24.8357 143.794 23.9398C143.215 23.0215 142.926 21.9689 142.926 20.7818C142.926 19.5499 143.226 18.4749 143.828 17.5566C144.451 16.6159 145.275 15.888 146.3 15.3728C147.346 14.8577 148.482 14.6001 149.707 14.6001C150.909 14.6001 152.023 14.8577 153.047 15.3728C154.094 15.888 154.929 16.6271 155.553 17.5902C156.199 18.5309 156.522 19.6395 156.522 20.9162C156.522 22.1256 156.232 23.1783 155.653 24.0742C155.096 24.9477 154.317 25.6308 153.315 26.1236C152.313 26.6163 151.154 26.8627 149.841 26.8627ZM149.74 23.5703C150.631 23.5703 151.288 23.3015 151.711 22.764C152.157 22.204 152.379 21.5321 152.379 20.7482C152.379 19.9419 152.145 19.2924 151.678 18.7996C151.21 18.2845 150.564 18.0269 149.74 18.0269C148.916 18.0269 148.259 18.2845 147.769 18.7996C147.302 19.3148 147.068 19.9643 147.068 20.7482C147.068 21.5321 147.291 22.204 147.736 22.764C148.181 23.3015 148.849 23.5703 149.74 23.5703ZM155.386 18.4301L152.413 16.4815L156.221 13.4243L158.325 16.0112L155.386 18.4301Z" fill="#FAFAFA"/>
<path d="M159.677 31.4989V8.08252H163.853V18.6988L163.151 18.7996C163.441 17.7918 163.864 16.9855 164.421 16.3807C165 15.7536 165.657 15.3057 166.392 15.0369C167.149 14.7457 167.906 14.6001 168.663 14.6001C170.534 14.6001 171.993 15.1377 173.039 16.2127C174.108 17.2654 174.643 18.7548 174.643 20.681V31.4989H170.467V22.2264C170.467 20.8378 170.222 19.8299 169.732 19.2028C169.242 18.5533 168.474 18.2285 167.427 18.2285C166.247 18.2285 165.356 18.6541 164.755 19.5052C164.153 20.3562 163.853 21.7113 163.853 23.5703V31.4989H159.677Z" fill="#FAFAFA"/>
<path d="M183.648 31.8349C182.757 31.8349 181.933 31.6669 181.176 31.3309C180.419 30.995 179.806 30.4462 179.339 29.6847C178.893 28.9232 178.67 27.9041 178.67 26.6275V11.0726L182.88 8.82163V25.4852C182.88 26.4483 183.002 27.1762 183.247 27.669C183.514 28.1617 184.026 28.4081 184.784 28.4081C185.006 28.4081 185.251 28.3857 185.519 28.3409C185.808 28.2961 186.12 28.2289 186.454 28.1393V31.3309C185.986 31.5101 185.519 31.6333 185.051 31.7005C184.583 31.7901 184.116 31.8349 183.648 31.8349ZM175.664 18.1949V14.9361H186.454V18.1949H175.664Z" fill="#FAFAFA"/>
<path d="M82.7067 8.27542C82.8819 7.75959 83.5905 7.74397 83.7983 8.22855L83.8159 8.27571L84.0524 8.97135C84.1066 9.13088 84.1942 9.27687 84.3092 9.39946C84.4243 9.52206 84.5641 9.61841 84.7194 9.68201L84.783 9.70589L85.4746 9.94346C85.9874 10.1197 86.0029 10.8325 85.5215 11.0414L85.4746 11.0591L84.783 11.297C84.6243 11.3515 84.4791 11.4396 84.3572 11.5553C84.2352 11.671 84.1394 11.8117 84.0761 11.9679L84.0524 12.0315L83.8162 12.7275C83.6409 13.2433 82.9323 13.2589 82.7248 12.7746L82.7067 12.7275L82.4705 12.0318C82.4163 11.8722 82.3287 11.7262 82.2137 11.6036C82.0986 11.4809 81.9587 11.3845 81.8035 11.3209L81.7402 11.297L81.0486 11.0594C80.5354 10.8832 80.5199 10.1704 81.0017 9.96174L81.0486 9.94346L81.7402 9.70589C81.8988 9.65137 82.0439 9.56328 82.1658 9.44755C82.2877 9.33182 82.3835 9.19115 82.4467 9.03502L82.4705 8.97135L82.7067 8.27542Z" fill="#FAFAFA"/>
<ellipse cx="138.096" cy="11.0268" rx="2.08784" ry="2.1" fill="#FAFAFA"/>
</svg>
