<svg width="85" height="22" viewBox="0 0 85 22" fill="none" xmlns="http://www.w3.org/2000/svg">
<path d="M0.39502 16.5V0.88723H2.3548V7.58483H10.0158V0.88723H11.9756V16.5H10.0158V9.42163H2.3548V16.5H0.39502Z" fill="#0E0E0E"/>
<path d="M14.6421 16.5V5.45683H16.5128V16.5H14.6421Z" fill="#0E0E0E"/>
<path d="M19.0201 16.5V5.45683H20.9131V8.41363L20.4231 8.52563C20.5271 7.86856 20.772 7.3011 21.158 6.82323C21.5589 6.33043 22.0192 5.94963 22.5388 5.68083C23.0733 5.41203 23.5929 5.27763 24.0977 5.27763C24.4392 5.27763 24.7658 5.31496 25.0776 5.38963C25.3894 5.4643 25.7086 5.59123 26.0352 5.77043L25.0999 7.47283C24.9217 7.38323 24.7064 7.30856 24.454 7.24883C24.2165 7.1891 23.9864 7.15923 23.7637 7.15923C23.4073 7.15923 23.051 7.22643 22.6947 7.36083C22.3532 7.49523 22.0414 7.7043 21.7593 7.98803C21.4773 8.27176 21.262 8.65256 21.1135 9.13043C21.0541 9.3395 21.0022 9.61576 20.9576 9.95923C20.9279 10.2878 20.9131 10.7432 20.9131 11.3256V16.5H19.0201Z" fill="#0E0E0E"/>
<path d="M31.4225 16.6792C30.5614 16.6792 29.8042 16.5374 29.151 16.2536C28.5126 15.955 27.9781 15.5443 27.5475 15.0216C27.1318 14.499 26.8126 13.9016 26.5899 13.2296C26.382 12.5427 26.2781 11.8184 26.2781 11.0568C26.2781 10.2952 26.382 9.57096 26.5899 8.88403C26.7978 8.18216 27.1021 7.56243 27.503 7.02483C27.9187 6.48723 28.4383 6.06163 29.0619 5.74803C29.6855 5.43443 30.413 5.27763 31.2444 5.27763C32.0907 5.27763 32.8182 5.42696 33.4269 5.72563C34.0504 6.00936 34.5552 6.4051 34.9412 6.91283C35.3421 7.42056 35.6391 7.98803 35.8321 8.61523C36.0251 9.24243 36.1216 9.89203 36.1216 10.564C36.1216 10.6238 36.1142 10.7656 36.0993 10.9896C36.0993 11.1987 36.0845 11.3854 36.0548 11.5496H28.1488C28.1934 12.6248 28.5051 13.4611 29.0842 14.0584C29.6632 14.6558 30.4501 14.9544 31.4448 14.9544C32.0832 14.9544 32.64 14.8499 33.1151 14.6408C33.5902 14.4318 34.0356 14.0958 34.4513 13.6328L35.7653 14.7976C35.3644 15.2307 34.9413 15.5891 34.4958 15.8728C34.0504 16.1416 33.5753 16.3432 33.0705 16.4776C32.5806 16.612 32.0313 16.6792 31.4225 16.6792ZM34.2509 10.5864C34.2806 10.467 34.2954 10.3475 34.2954 10.228C34.3103 10.1086 34.3177 9.9891 34.3177 9.86963C34.3177 9.51123 34.2509 9.15283 34.1173 8.79443C33.9985 8.43603 33.8129 8.11496 33.5605 7.83123C33.3229 7.53256 33.0112 7.3011 32.6251 7.13683C32.254 6.95763 31.8086 6.86803 31.2889 6.86803C30.6505 6.86803 30.1012 7.01736 29.6409 7.31603C29.1807 7.6147 28.8244 8.01043 28.572 8.50323C28.3196 8.99603 28.1711 9.5411 28.1265 10.1384H34.8744L34.2509 10.5864Z" fill="#0E0E0E"/>
<path d="M38.0377 16.5V0.88723H43.1599C44.4218 0.88723 45.4388 1.0739 46.2109 1.44723C46.9829 1.80563 47.5471 2.3283 47.9034 3.01523C48.2746 3.68723 48.4602 4.48616 48.4602 5.41203C48.4602 6.84563 48.0519 7.95816 47.2353 8.74963C46.4336 9.52616 45.283 9.95923 43.7834 10.0488C43.4419 10.0638 43.093 10.0712 42.7367 10.0712C42.3804 10.0712 42.076 10.0712 41.8236 10.0712H40.9106V16.5H38.0377ZM46.4781 16.5L42.5808 9.73523L45.5205 9.37683L49.7964 16.5H46.4781ZM40.9106 7.47283H42.8703C43.3603 7.47283 43.8057 7.42056 44.2066 7.31603C44.6223 7.19656 44.9563 6.99496 45.2087 6.71123C45.4611 6.41256 45.5873 5.99443 45.5873 5.45683C45.5873 4.9043 45.4611 4.48616 45.2087 4.20243C44.9563 3.9187 44.6223 3.73203 44.2066 3.64243C43.8057 3.5379 43.3603 3.48563 42.8703 3.48563H40.9106V7.47283Z" fill="#0E0E0E"/>
<path d="M50.8499 16.5V5.45683H53.6114V16.5H50.8499Z" fill="#0E0E0E"/>
<path d="M60.2951 21.2936C58.6619 21.2936 57.3703 21.0024 56.4201 20.42C55.4847 19.8376 55.017 19.0312 55.017 18.0008C55.017 17.9112 55.0245 17.7992 55.0393 17.6648C55.0541 17.5454 55.0764 17.4259 55.1061 17.3064L58.1794 15.38L58.8698 16.164L57.4668 17.8888C57.4519 17.9336 57.4445 17.971 57.4445 18.0008C57.4445 18.0307 57.4445 18.0606 57.4445 18.0904C57.4445 18.5086 57.7043 18.8296 58.2239 19.0536C58.7436 19.2776 59.434 19.3896 60.2951 19.3896C61.0226 19.3896 61.5793 19.2926 61.9654 19.0984C62.3514 18.9192 62.5444 18.6504 62.5444 18.292C62.5444 18.0979 62.4924 17.9411 62.3885 17.8216C62.2846 17.7022 62.1138 17.6051 61.8763 17.5304C61.6387 17.4558 61.3269 17.3886 60.9409 17.3288C60.5698 17.2691 60.1169 17.2019 59.5824 17.1272C58.8995 17.0526 58.2314 16.9107 57.5781 16.7016C56.9249 16.5075 56.3829 16.2163 55.9524 15.828C55.5218 15.4248 55.3065 14.8947 55.3065 14.2376C55.3065 13.6552 55.507 13.1251 55.9078 12.6472C56.3087 12.1544 56.8358 11.7512 57.489 11.4376L58.8252 12.5128C58.4244 12.5726 58.12 12.707 57.9122 12.916C57.7192 13.1251 57.6227 13.3715 57.6227 13.6552C57.6227 13.8942 57.7192 14.0883 57.9122 14.2376C58.1052 14.372 58.3798 14.4766 58.7362 14.5512C59.0925 14.6259 59.5156 14.6931 60.0056 14.7528C60.7628 14.8574 61.4606 14.9694 62.099 15.0888C62.7522 15.2083 63.3164 15.38 63.7915 15.604C64.2815 15.8131 64.6526 16.1043 64.905 16.4776C65.1723 16.851 65.3059 17.3363 65.3059 17.9336C65.3059 19.0238 64.8679 19.8526 63.9919 20.42C63.1308 21.0024 61.8985 21.2936 60.2951 21.2936ZM60.0724 13.4088C59.1519 13.4088 58.3427 13.2371 57.6449 12.8936C56.962 12.5352 56.4275 12.0574 56.0415 11.46C55.6554 10.8478 55.4624 10.1459 55.4624 9.35443C55.4624 8.5331 55.6629 7.8163 56.0637 7.20403C56.4794 6.57683 57.0288 6.0915 57.7117 5.74803C58.4095 5.40456 59.1667 5.23283 59.9833 5.23283C60.785 5.23283 61.5274 5.40456 62.2103 5.74803C62.9081 6.0915 63.4649 6.5843 63.8806 7.22643C64.3112 7.85363 64.5264 8.59283 64.5264 9.44403C64.5264 10.2504 64.3334 10.9523 63.9474 11.5496C63.5762 12.132 63.0566 12.5875 62.3885 12.916C61.7204 13.2446 60.9483 13.4088 60.0724 13.4088ZM60.0056 11.2136C60.5994 11.2136 61.0374 11.0344 61.3195 10.676C61.6165 10.3027 61.7649 9.8547 61.7649 9.33203C61.7649 8.79443 61.609 8.36136 61.2972 8.03283C60.9855 7.68936 60.5549 7.51763 60.0056 7.51763C59.4562 7.51763 59.0183 7.68936 58.6916 8.03283C58.3798 8.3763 58.2239 8.80936 58.2239 9.33203C58.2239 9.8547 58.3724 10.3027 58.6694 10.676C58.9663 11.0344 59.4117 11.2136 60.0056 11.2136ZM63.7692 7.78643L61.7872 6.48723L64.326 4.44883L65.729 6.17363L63.7692 7.78643Z" fill="#0E0E0E"/>
<path d="M66.6301 16.5V0.88723H69.4139V7.96563L68.9462 8.03283C69.1392 7.36083 69.4213 6.82323 69.7925 6.42003C70.1785 6.0019 70.6165 5.70323 71.1064 5.52403C71.6112 5.3299 72.116 5.23283 72.6208 5.23283C73.8679 5.23283 74.8404 5.59123 75.5382 6.30803C76.2509 7.0099 76.6072 8.00296 76.6072 9.28723V16.5H73.8234V10.3176C73.8234 9.39176 73.6601 8.71976 73.3335 8.30163C73.0068 7.86856 72.4946 7.65203 71.7968 7.65203C71.0099 7.65203 70.4161 7.93576 70.0152 8.50323C69.6143 9.0707 69.4139 9.97416 69.4139 11.2136V16.5H66.6301Z" fill="#0E0E0E"/>
<path d="M82.6106 16.724C82.0167 16.724 81.4674 16.612 80.9626 16.388C80.4578 16.164 80.0495 15.7982 79.7377 15.2904C79.4408 14.7827 79.2923 14.1032 79.2923 13.252V2.88083L82.0984 1.38003V12.4904C82.0984 13.1326 82.18 13.6179 82.3433 13.9464C82.5215 14.275 82.863 14.4392 83.3678 14.4392C83.5163 14.4392 83.6796 14.4243 83.8577 14.3944C84.0507 14.3646 84.2586 14.3198 84.4813 14.26V16.388C84.1695 16.5075 83.8577 16.5896 83.5459 16.6344C83.2342 16.6942 82.9224 16.724 82.6106 16.724ZM77.288 7.62963V5.45683H84.4813V7.62963H77.288Z" fill="#0E0E0E"/>
</svg>
