<svg width="138" height="28" viewBox="0 0 138 28" fill="none" xmlns="http://www.w3.org/2000/svg">
<g clip-path="url(#clip0_12_101)">
<path fill-rule="evenodd" clip-rule="evenodd" d="M9.19348 0C10.718 0 11.477 1.84694 10.3929 2.91868L6.21945 7.0448C4.60571 8.64023 4.41472 11.1809 5.77187 12.9995L5.89691 13.167C7.50378 15.3203 10.6172 15.6193 12.6046 13.8111L13.0455 13.4099C13.7163 12.7996 14.7475 12.8207 15.3927 13.4581L23.8277 21.791C23.8294 21.7927 23.8282 21.7956 23.8258 21.7956C23.8233 21.7956 23.8221 21.7987 23.824 21.8004L23.9794 21.9409L24.4508 22.4065C24.6656 22.6187 24.8454 22.8597 24.9864 23.1205C25.2466 23.6015 25.0687 24.175 24.702 24.5807L23.2465 26.1907C22.6148 26.8896 21.536 26.9441 20.8371 26.3124L20.5418 26.0455C19.9248 25.4879 18.9957 25.4564 18.3424 25.9708L16.2299 27.6343C15.5321 28.1838 14.5292 28.1059 13.9246 27.4552L12.5196 25.9431C11.8384 25.21 10.6754 25.2179 10.0043 25.9603L8.8028 27.2893C8.17645 27.9821 6.77895 28.2947 5.52464 27.1299L0.0260073 21.7956C0.00944874 21.7806 0 21.7594 0 21.7371V5.95721C0 5.5045 0.179988 5.07035 0.500315 4.75041L4.7569 0.498943C5.07677 0.179457 5.5104 0 5.96252 0H9.19348ZM7.9651 21.7676C7.96285 21.7701 7.96304 21.7739 7.96552 21.7762L7.9853 21.7941C7.98641 21.7951 7.98786 21.7956 7.98936 21.7956C7.9949 21.7956 7.99753 21.7888 7.99342 21.7851L7.97365 21.7672C7.97117 21.7649 7.96734 21.7651 7.9651 21.7676Z" fill="#F06E1E"/>
<path d="M20.8586 0C21.3107 0 21.7444 0.17946 22.0642 0.498953L26.3207 4.75041C26.6411 5.07035 26.8211 5.50449 26.8211 5.9572V21.1981C26.8211 21.5281 26.5535 21.7956 26.2234 21.7956C26.0376 21.7956 25.8642 21.7075 25.7419 21.5676C25.67 21.4853 25.5948 21.4053 25.5165 21.3279L16.5599 12.4797C15.8868 11.8148 15.8835 10.7292 16.5526 10.0602L18.0071 8.6059C18.3032 8.30982 18.3032 7.82978 18.0071 7.53369C17.711 7.23762 17.2309 7.23761 16.9348 7.53369L13.7388 10.7292L11.584 12.6897C10.2591 13.8951 8.18346 13.6958 7.11222 12.2603L6.98727 12.0928C6.08251 10.8804 6.20977 9.18664 7.28557 8.12301L15.0033 0.492809C15.3226 0.177078 15.7536 0 16.2027 0H20.8586Z" fill="#F06E1E"/>
<path d="M44.2163 21V5.38724H46.1761V12.0848H53.8371V5.38724H55.7969V21H53.8371V13.9216H46.1761V21H44.2163Z" fill="#0E0E0E"/>
<path d="M58.4634 21V9.95684H60.3341V21H58.4634Z" fill="#0E0E0E"/>
<path d="M62.8414 21V9.95684H64.7344V12.9136L64.2444 13.0256C64.3484 12.3686 64.5933 11.8011 64.9793 11.3232C65.3802 10.8304 65.8405 10.4496 66.3601 10.1808C66.8946 9.91204 67.4142 9.77764 67.919 9.77764C68.2605 9.77764 68.5871 9.81497 68.8989 9.88964C69.2107 9.9643 69.5299 10.0912 69.8565 10.2704L68.9212 11.9728C68.743 11.8832 68.5277 11.8086 68.2753 11.7488C68.0378 11.6891 67.8077 11.6592 67.585 11.6592C67.2286 11.6592 66.8723 11.7264 66.516 11.8608C66.1745 11.9952 65.8627 12.2043 65.5806 12.488C65.2985 12.7718 65.0833 13.1526 64.9348 13.6304C64.8754 13.8395 64.8234 14.1158 64.7789 14.4592C64.7492 14.7878 64.7344 15.2432 64.7344 15.8256V21H62.8414Z" fill="#0E0E0E"/>
<path d="M75.2438 21.1792C74.3827 21.1792 73.6255 21.0374 72.9723 20.7536C72.3339 20.455 71.7994 20.0443 71.3688 19.5216C70.9531 18.999 70.6339 18.4016 70.4112 17.7296C70.2033 17.0427 70.0994 16.3184 70.0994 15.5568C70.0994 14.7952 70.2033 14.071 70.4112 13.384C70.6191 12.6822 70.9234 12.0624 71.3243 11.5248C71.74 10.9872 72.2596 10.5616 72.8832 10.248C73.5068 9.93444 74.2343 9.77764 75.0657 9.77764C75.912 9.77764 76.6395 9.92697 77.2482 10.2256C77.8717 10.5094 78.3765 10.9051 78.7625 11.4128C79.1634 11.9206 79.4604 12.488 79.6534 13.1152C79.8464 13.7424 79.9429 14.392 79.9429 15.064C79.9429 15.1238 79.9355 15.2656 79.9206 15.4896C79.9206 15.6987 79.9058 15.8854 79.8761 16.0496H71.9701C72.0147 17.1248 72.3264 17.9611 72.9055 18.5584C73.4845 19.1558 74.2714 19.4544 75.2661 19.4544C75.9045 19.4544 76.4613 19.3499 76.9364 19.1408C77.4115 18.9318 77.8569 18.5958 78.2726 18.1328L79.5865 19.2976C79.1857 19.7307 78.7626 20.0891 78.3171 20.3728C77.8717 20.6416 77.3966 20.8432 76.8918 20.9776C76.4019 21.112 75.8526 21.1792 75.2438 21.1792ZM78.0722 15.0864C78.1019 14.967 78.1167 14.8475 78.1167 14.728C78.1316 14.6086 78.139 14.4891 78.139 14.3696C78.139 14.0112 78.0722 13.6528 77.9385 13.2944C77.8198 12.936 77.6342 12.615 77.3818 12.3312C77.1442 12.0326 76.8325 11.8011 76.4464 11.6368C76.0753 11.4576 75.6299 11.368 75.1102 11.368C74.4718 11.368 73.9225 11.5174 73.4622 11.816C73.002 12.1147 72.6456 12.5104 72.3933 13.0032C72.1409 13.496 71.9924 14.0411 71.9478 14.6384H78.6957L78.0722 15.0864Z" fill="#0E0E0E"/>
<path d="M81.859 21V5.38724H86.9812C88.2431 5.38724 89.2601 5.5739 90.0322 5.94724C90.8042 6.30564 91.3684 6.8283 91.7247 7.51524C92.0959 8.18724 92.2815 8.98617 92.2815 9.91204C92.2815 11.3456 91.8732 12.4582 91.0566 13.2496C90.2549 14.0262 89.1042 14.4592 87.6047 14.5488C87.2632 14.5638 86.9143 14.5712 86.558 14.5712C86.2017 14.5712 85.8973 14.5712 85.6449 14.5712H84.7318V21H81.859ZM90.2994 21L86.4021 14.2352L89.3418 13.8768L93.6177 21H90.2994ZM84.7318 11.9728H86.6916C87.1816 11.9728 87.627 11.9206 88.0279 11.816C88.4436 11.6966 88.7776 11.495 89.03 11.2112C89.2824 10.9126 89.4086 10.4944 89.4086 9.95684C89.4086 9.4043 89.2824 8.98617 89.03 8.70244C88.7776 8.4187 88.4436 8.23204 88.0279 8.14244C87.627 8.0379 87.1816 7.98564 86.6916 7.98564H84.7318V11.9728Z" fill="#0E0E0E"/>
<path d="M94.6712 21V9.95684H97.4327V21H94.6712Z" fill="#0E0E0E"/>
<path d="M104.116 25.7936C102.483 25.7936 101.192 25.5024 100.241 24.92C99.306 24.3376 98.8383 23.5312 98.8383 22.5008C98.8383 22.4112 98.8457 22.2992 98.8606 22.1648C98.8754 22.0454 98.8977 21.9259 98.9274 21.8064L102.001 19.88L102.691 20.664L101.288 22.3888C101.273 22.4336 101.266 22.471 101.266 22.5008C101.266 22.5307 101.266 22.5606 101.266 22.5904C101.266 23.0086 101.526 23.3296 102.045 23.5536C102.565 23.7776 103.255 23.8896 104.116 23.8896C104.844 23.8896 105.401 23.7926 105.787 23.5984C106.173 23.4192 106.366 23.1504 106.366 22.792C106.366 22.5979 106.314 22.4411 106.21 22.3216C106.106 22.2022 105.935 22.1051 105.698 22.0304C105.46 21.9558 105.148 21.8886 104.762 21.8288C104.391 21.7691 103.938 21.7019 103.404 21.6272C102.721 21.5526 102.053 21.4107 101.399 21.2016C100.746 21.0075 100.204 20.7163 99.7737 20.328C99.3431 19.9248 99.1278 19.3947 99.1278 18.7376C99.1278 18.1552 99.3283 17.6251 99.7291 17.1472C100.13 16.6544 100.657 16.2512 101.31 15.9376L102.647 17.0128C102.246 17.0726 101.941 17.207 101.733 17.416C101.54 17.6251 101.444 17.8715 101.444 18.1552C101.444 18.3942 101.54 18.5883 101.733 18.7376C101.926 18.872 102.201 18.9766 102.557 19.0512C102.914 19.1259 103.337 19.1931 103.827 19.2528C104.584 19.3574 105.282 19.4694 105.92 19.5888C106.574 19.7083 107.138 19.88 107.613 20.104C108.103 20.3131 108.474 20.6043 108.726 20.9776C108.994 21.351 109.127 21.8363 109.127 22.4336C109.127 23.5238 108.689 24.3526 107.813 24.92C106.952 25.5024 105.72 25.7936 104.116 25.7936ZM103.894 17.9088C102.973 17.9088 102.164 17.7371 101.466 17.3936C100.783 17.0352 100.249 16.5574 99.8628 15.96C99.4767 15.3478 99.2837 14.6459 99.2837 13.8544C99.2837 13.0331 99.4842 12.3163 99.885 11.704C100.301 11.0768 100.85 10.5915 101.533 10.248C102.231 9.90457 102.988 9.73284 103.805 9.73284C104.606 9.73284 105.349 9.90457 106.032 10.248C106.729 10.5915 107.286 11.0843 107.702 11.7264C108.132 12.3536 108.348 13.0928 108.348 13.944C108.348 14.7504 108.155 15.4523 107.769 16.0496C107.398 16.632 106.878 17.0875 106.21 17.416C105.542 17.7446 104.77 17.9088 103.894 17.9088ZM103.827 15.7136C104.421 15.7136 104.859 15.5344 105.141 15.176C105.438 14.8027 105.586 14.3547 105.586 13.832C105.586 13.2944 105.43 12.8614 105.119 12.5328C104.807 12.1894 104.376 12.0176 103.827 12.0176C103.278 12.0176 102.84 12.1894 102.513 12.5328C102.201 12.8763 102.045 13.3094 102.045 13.832C102.045 14.3547 102.194 14.8027 102.491 15.176C102.788 15.5344 103.233 15.7136 103.827 15.7136ZM107.591 12.2864L105.608 10.9872L108.147 8.94884L109.55 10.6736L107.591 12.2864Z" fill="#0E0E0E"/>
<path d="M110.451 21V5.38724H113.235V12.4656L112.768 12.5328C112.961 11.8608 113.243 11.3232 113.614 10.92C114 10.5019 114.438 10.2032 114.928 10.024C115.433 9.8299 115.937 9.73284 116.442 9.73284C117.689 9.73284 118.662 10.0912 119.36 10.808C120.072 11.5099 120.428 12.503 120.428 13.7872V21H117.645V14.8176C117.645 13.8918 117.481 13.2198 117.155 12.8016C116.828 12.3686 116.316 12.152 115.618 12.152C114.831 12.152 114.237 12.4358 113.836 13.0032C113.436 13.5707 113.235 14.4742 113.235 15.7136V21H110.451Z" fill="#0E0E0E"/>
<path d="M126.432 21.224C125.838 21.224 125.289 21.112 124.784 20.888C124.279 20.664 123.871 20.2982 123.559 19.7904C123.262 19.2827 123.114 18.6032 123.114 17.752V7.38084L125.92 5.88004V16.9904C125.92 17.6326 126.001 18.1179 126.165 18.4464C126.343 18.775 126.684 18.9392 127.189 18.9392C127.338 18.9392 127.501 18.9243 127.679 18.8944C127.872 18.8646 128.08 18.8198 128.303 18.76V20.888C127.991 21.0075 127.679 21.0896 127.367 21.1344C127.055 21.1942 126.744 21.224 126.432 21.224ZM121.109 12.1296V9.95684H128.303V12.1296H121.109Z" fill="#0E0E0E"/>
<path d="M59.1378 5.51597C59.2546 5.17208 59.727 5.16167 59.8655 5.48473L59.8773 5.51617L60.0349 5.97992C60.0711 6.08628 60.1294 6.1836 60.2061 6.26533C60.2829 6.34706 60.3761 6.41129 60.4796 6.4537L60.522 6.46962L60.983 6.628C61.3249 6.74551 61.3353 7.22066 61.0143 7.35999L60.983 7.37178L60.522 7.53036C60.4162 7.56668 60.3194 7.62539 60.2381 7.70255C60.1568 7.7797 60.0929 7.8735 60.0507 7.97761L60.0349 8.02005L59.8775 8.484C59.7606 8.82789 59.2882 8.8383 59.1499 8.51544L59.1378 8.484L58.9803 8.02025C58.9442 7.91386 58.8858 7.81649 58.8091 7.73473C58.7324 7.65296 58.6392 7.5887 58.5357 7.54627L58.4935 7.53036L58.0324 7.37197C57.6903 7.25446 57.6799 6.77931 58.0011 6.64018L58.0324 6.628L58.4935 6.46962C58.5992 6.43327 58.696 6.37454 58.7772 6.29739C58.8585 6.22024 58.9223 6.12645 58.9645 6.02237L58.9803 5.97992L59.1378 5.51597Z" fill="#0E0E0E"/>
<ellipse cx="96.0643" cy="7.35" rx="1.39189" ry="1.4" fill="#0E0E0E"/>
</g>
<defs>
<clipPath id="clip0_12_101">
<rect width="137.821" height="28" fill="white"/>
</clipPath>
</defs>
</svg>
