<svg width="57" height="56" viewBox="0 0 57 56" fill="none" xmlns="http://www.w3.org/2000/svg">
    <circle cx="28.6666" cy="28" r="28" fill="#fff1d3" style="mix-blend-mode:overlay"/>
    <path d="M29.0001 28L41.0001 16" stroke="#58240E" stroke-width="2" stroke-linecap="round" stroke-linejoin="round"/>
    <path d="M37.4851 19.515C35.3596 17.3945 32.5157 16.149 29.5159 16.0249C26.5161 15.9008 23.579 16.9071 21.2856 18.8447C18.9922 20.7824 17.5096 23.5102 17.1311 26.4886C16.7525 29.467 17.5057 32.479 19.2415 34.9287C20.9773 37.3785 23.5693 39.0875 26.5048 39.7177C29.4402 40.3479 32.5053 39.8533 35.0936 38.332C37.682 36.8106 39.605 34.3731 40.4823 31.5018C41.3597 28.6305 41.1273 25.5345 39.8314 22.8262" stroke="#58240E" stroke-width="2" stroke-linecap="round" stroke-linejoin="round"/>
    <path d="M33.2426 23.7575C32.2501 22.7661 30.9416 22.1539 29.5445 22.0272C28.1474 21.9005 26.7501 22.2673 25.5954 23.0639C24.4408 23.8605 23.6017 25.0365 23.2241 26.3875C22.8464 27.7386 22.9541 29.1792 23.5284 30.459C24.1027 31.7389 25.1073 32.7771 26.3676 33.3931C27.6279 34.0092 29.0642 34.1642 30.4269 33.8312C31.7896 33.4982 32.9926 32.6982 33.8267 31.5703C34.6608 30.4424 35.0733 29.058 34.9926 27.6575" stroke="#58240E" stroke-width="2" stroke-linecap="round" stroke-linejoin="round"/>
</svg>